<?xml version="1.0" encoding="UTF-8"?>
<svg id="Layer_1" xmlns="http://www.w3.org/2000/svg" version="1.1" viewBox="0 0 774.8 632.7">
  <!-- Generator: Adobe Illustrator 29.5.1, SVG Export Plug-In . SVG Version: 2.1.0 Build 141)  -->
  <defs>
    <style>
      .st0 {
        fill: #ffb400;
      }
    </style>
  </defs>
  <path class="st0" d="M425.8,426.4c1.5,2-6.9,16.2-8.6,18.9-24.9,40.9-58.9,60.2-37.2,116.3,1.6,4.1,9.1,16.3,8.8,19.2-.4,5.1-8.5.7-11.4-.7-12.6-6.2-28-22.2-34.4-34.6s-8.8-33.4-4.3-52.2c-32.1-.1-55.8-30.7-44.5-62,7.2-19.8,28.9-34.2,47.1-42.9,5.6-2.7,13-3.9,17.4-8.1-5.2.9-12,.5-17.5,0-16.6-1.6-35.9-5.5-50.5-13.5s-28.3-20.1-27.8-35.4c2.2-3.4,18.2,4,22.1,5.1,50,13.8,119.1,7.9,164.4-18.1,17.5-10,32.6-23.6,39.3-43.2-34.2,16.2-70.8,27.2-108.5,32-43.1,5.5-131.8,5.9-161.5-31.5-3.8-4.8-11.9-22.6-5-26,2.7-1.4,20,7.9,24.5,9.6,74.3,28,203.8,10.6,266.4-39.6,20.1-16.1,51.4-55.9,23.6-78.4-31.9-25.8-119.3-25.9-159-23-31.7,2.3-125.2,15.3-145,40-8,9.9-2.8,18.2,6.6,24.4,37.6,24.8,157.3,26.1,198.9,11,37.8-13.7-12.6-24.7-26.7-27.2-34.8-6-71.2-5.5-106.5-6.5l-1.7-1.8,37.6-6.9c7.7.4,15.3-1.6,22.9-2.1,28.8-1.9,104.7-1.9,123.9,22.1,18.1,22.7-16.5,44.4-34.4,51.4-56.8,22.3-163.7,20.5-220-3-58.6-24.5-52.4-72.1-.7-100.7,74.6-41.3,221.8-49.9,300.9-19.6,79.1,30.3,55.6,103.6,4.2,147.8-.9,30.2-8.3,51.5-28,74s-10.7,10.8-17.7,22.3c-15.2,24.9-36.2,41.7-61.9,55.1-15,7.8-70.4,28-76.1,41.9-7,16.9,26.8,10,34.2,8.3,17.4-4.1,31-13.4,46-22.5Z"/>
  <path class="st0" d="M609.8,10.4c19,1,36.9-.3,54.7,7.8,27.2,12.5,44.1,39.1,46.3,68.7,3.6,49.1-3.3,102.8,0,152s23,52.9,56.1,61.1v37.4c-37.8,1.6-54.7,25.7-56.1,61.4-1.9,47.6,3,97.9,0,145.1s-12.5,51.4-36.1,66.9c-8.3,5.4-26.6,13.6-36.4,13.6h-28.5v-33c19.2-.3,41.4-2.1,54.4-18.1s10.8-22.2,11.6-33.4c3.4-47.7-2.2-99.8,0-148.1,1.4-33.2,15.1-57.6,43-75.4-27.3-15-41.6-42.7-43-73.5-2.4-48.4,3.3-100,0-148.1-.8-12.6-4.6-27.3-13-37-12.7-14.7-35-15-53-15.5V10.4Z"/>
  <path class="st0" d="M165.8,11.4v31c-17.2,1-34.8.2-48.9,11.6s-16.1,22.8-17.1,36.9c-3.8,50.7,3.3,106.1,0,157.1s-17.2,52-41,70.4c26,14.6,39.1,42.3,41,71.5,3.3,49.9-3.9,104.5,0,154.1.8,10.3,4.9,23.5,11.5,31.5,12.8,15.5,36,15.1,54.5,16v33h-28.5c-37.3,0-70-40.3-72.5-75.5-3.6-49.8,3.3-104.1,0-154.1-1.5-23.4-10.5-43.8-33.5-52.5-7.3-2.8-15.1-3.6-22.6-5.6l.2-36.3c24.9-4.6,47.4-16.8,53.4-43.1,1.2-5.3,2.2-12.1,2.5-17.5,3-49.9-3.4-103.3,0-153.1,2-29.9,17.8-56,45.4-68.6s17.8-6.8,21.2-6.8h34.5Z"/>
</svg>