<?xml version="1.0" encoding="UTF-8"?>
<svg id="Layer_1" xmlns="http://www.w3.org/2000/svg" version="1.1" viewBox="0 0 870.8 632.7">
  <!-- Generator: Adobe Illustrator 29.5.1, SVG Export Plug-In . SVG Version: 2.1.0 Build 141)  -->
  <defs>
    <style>
      .st0 {
        fill: #f4a300;
      }
    </style>
  </defs>
  <path class="st0" d="M481.5,426.4c1.5,2-6.9,16.2-8.6,18.9-24.9,40.9-58.9,60.2-37.2,116.3,1.6,4.1,9.1,16.3,8.8,19.2-.4,5.1-8.5.7-11.4-.7-12.6-6.2-28-22.2-34.4-34.6s-8.8-33.4-4.3-52.2c-32.1-.1-55.8-30.7-44.5-62,7.2-19.8,28.9-34.2,47.1-42.9,5.6-2.7,13-3.9,17.4-8.1-5.2.9-12,.5-17.5,0-16.6-1.6-35.9-5.5-50.5-13.5s-28.3-20.1-27.8-35.4c2.2-3.4,18.2,4,22.1,5.1,50,13.8,119.1,7.9,164.4-18.1,17.5-10,32.6-23.6,39.3-43.2-34.2,16.2-70.8,27.2-108.5,32-43.1,5.5-131.8,5.9-161.5-31.5-3.8-4.8-11.9-22.6-5-26,2.7-1.4,20,7.9,24.5,9.6,74.3,28,203.8,10.6,266.4-39.6,20.1-16.1,51.4-55.9,23.6-78.4-31.9-25.8-119.3-25.9-159-23-31.7,2.3-125.2,15.3-145,40-8,9.9-2.8,18.2,6.6,24.4,37.6,24.8,157.3,26.1,198.9,11,37.8-13.7-12.6-24.7-26.7-27.2-34.8-6-71.2-5.5-106.5-6.5l-1.7-1.8,37.6-6.9c7.7.4,15.3-1.6,22.9-2.1,28.8-1.9,104.7-1.9,123.9,22.1,18.1,22.7-16.5,44.4-34.4,51.4-56.8,22.3-163.7,20.5-220-3-58.6-24.5-52.4-72.1-.7-100.7,74.6-41.3,221.8-49.9,300.9-19.6,79.1,30.3,55.6,103.6,4.2,147.8-.9,30.2-8.3,51.5-28,74s-10.7,10.8-17.7,22.3c-15.2,24.9-36.2,41.7-61.9,55.1-15,7.8-70.4,28-76.1,41.9-7,16.9,26.8,10,34.2,8.3,17.4-4.1,31-13.4,46-22.5h.1Z"/>
  <path class="st0" d="M274,41.1c-29.9.5-67,.8-88.2,15.5-14,9.7-20.3,24.4-21.6,37-5.5,48.1,4,99.7,0,148.1-2.3,30.8-26.1,58.5-71.5,73.5,46.4,17.8,69.2,42.2,71.5,75.4,3.7,48.3-5.7,100.4,0,148.1,1.3,11.2-2.3,17.4,19.3,33.4s58.5,17.8,90.5,18.1v33h-47.4c-16.3,0-46.7-8.2-60.5-13.6-39.3-15.5-55.1-19.7-60-66.9-5-47.2,3.2-97.5,0-145.1-2.3-35.7-30.4-59.8-93.3-61.4v-37.4c55.1-8.2,87.8-11.9,93.3-61.1,5.5-49.2-6-102.9,0-152,3.7-29.6,31.8-56.2,77-68.7,29.6-8.1,59.4-6.8,91-7.8v31.9h0Z"/>
  <path class="st0" d="M600.4,41.1V9.2c31.6,1,61.4-.3,91,7.8,45.2,12.5,73.4,39.1,77,68.7,6,49.1-5.5,102.8,0,152,5.5,49.2,38.3,52.9,93.3,61.1v37.4c-62.9,1.6-91,25.7-93.3,61.4-3.2,47.6,5,97.9,0,145.1-5,47.2-20.8,51.4-60,66.9-13.8,5.4-44.2,13.6-60.5,13.6h-47.4v-33c31.9-.3,68.9-2.1,90.5-18.1,21.6-16,18-22.2,19.3-33.4,5.7-47.7-3.7-99.8,0-148.1,2.3-33.2,25.1-57.6,71.5-75.4-45.4-15-69.2-42.7-71.5-73.5-4-48.4,5.5-100,0-148.1-1.3-12.6-7.7-27.3-21.6-37-21.1-14.7-58.2-15-88.2-15.5h0Z"/>
</svg>